<svg id="visual" viewBox="0 0 900 600" width="900" height="600" xmlns="http://www.w3.org/2000/svg"
    xmlns:xlink="http://www.w3.org/1999/xlink" version="1.1">
    <path
        d="M0 348L11.5 348.3C23 348.7 46 349.3 69 364.2C92 379 115 408 138.2 420.5C161.3 433 184.7 429 207.8 430.7C231 432.3 254 439.7 277 433.3C300 427 323 407 346 395.8C369 384.7 392 382.3 415.2 385.3C438.3 388.3 461.7 396.7 484.8 396.5C508 396.3 531 387.7 554 380.3C577 373 600 367 623 376.8C646 386.7 669 412.3 692.2 420.3C715.3 428.3 738.7 418.7 761.8 419C785 419.3 808 429.7 831 421.7C854 413.7 877 387.3 888.5 374.2L900 361L900 601L888.5 601C877 601 854 601 831 601C808 601 785 601 761.8 601C738.7 601 715.3 601 692.2 601C669 601 646 601 623 601C600 601 577 601 554 601C531 601 508 601 484.8 601C461.7 601 438.3 601 415.2 601C392 601 369 601 346 601C323 601 300 601 277 601C254 601 231 601 207.8 601C184.7 601 161.3 601 138.2 601C115 601 92 601 69 601C46 601 23 601 11.5 601L0 601Z"
        fill="#fa7268"></path>
    <path
        d="M0 461L11.5 452.7C23 444.3 46 427.7 69 429.7C92 431.7 115 452.3 138.2 455.3C161.3 458.3 184.7 443.7 207.8 439.7C231 435.7 254 442.3 277 443.7C300 445 323 441 346 432.7C369 424.3 392 411.7 415.2 414.5C438.3 417.3 461.7 435.7 484.8 438.5C508 441.3 531 428.7 554 425.7C577 422.7 600 429.3 623 428.3C646 427.3 669 418.7 692.2 421.5C715.3 424.3 738.7 438.7 761.8 450.7C785 462.7 808 472.3 831 475.2C854 478 877 474 888.5 472L900 470L900 601L888.5 601C877 601 854 601 831 601C808 601 785 601 761.8 601C738.7 601 715.3 601 692.2 601C669 601 646 601 623 601C600 601 577 601 554 601C531 601 508 601 484.8 601C461.7 601 438.3 601 415.2 601C392 601 369 601 346 601C323 601 300 601 277 601C254 601 231 601 207.8 601C184.7 601 161.3 601 138.2 601C115 601 92 601 69 601C46 601 23 601 11.5 601L0 601Z"
        fill="#ef5f67"></path>
    <path
        d="M0 489L11.5 493.2C23 497.3 46 505.7 69 509.5C92 513.3 115 512.7 138.2 501.5C161.3 490.3 184.7 468.7 207.8 463.3C231 458 254 469 277 480C300 491 323 502 346 507C369 512 392 511 415.2 504.5C438.3 498 461.7 486 484.8 478C508 470 531 466 554 463.5C577 461 600 460 623 464.5C646 469 669 479 692.2 477.3C715.3 475.7 738.7 462.3 761.8 453.3C785 444.3 808 439.7 831 449C854 458.3 877 481.7 888.5 493.3L900 505L900 601L888.5 601C877 601 854 601 831 601C808 601 785 601 761.8 601C738.7 601 715.3 601 692.2 601C669 601 646 601 623 601C600 601 577 601 554 601C531 601 508 601 484.8 601C461.7 601 438.3 601 415.2 601C392 601 369 601 346 601C323 601 300 601 277 601C254 601 231 601 207.8 601C184.7 601 161.3 601 138.2 601C115 601 92 601 69 601C46 601 23 601 11.5 601L0 601Z"
        fill="#e34c67"></path>
    <path
        d="M0 539L11.5 532.3C23 525.7 46 512.3 69 512.5C92 512.7 115 526.3 138.2 525.3C161.3 524.3 184.7 508.7 207.8 498.3C231 488 254 483 277 481C300 479 323 480 346 483.3C369 486.7 392 492.3 415.2 494.5C438.3 496.7 461.7 495.3 484.8 501.3C508 507.3 531 520.7 554 527C577 533.3 600 532.7 623 531.7C646 530.7 669 529.3 692.2 531C715.3 532.7 738.7 537.3 761.8 539.7C785 542 808 542 831 534.8C854 527.7 877 513.3 888.5 506.2L900 499L900 601L888.5 601C877 601 854 601 831 601C808 601 785 601 761.8 601C738.7 601 715.3 601 692.2 601C669 601 646 601 623 601C600 601 577 601 554 601C531 601 508 601 484.8 601C461.7 601 438.3 601 415.2 601C392 601 369 601 346 601C323 601 300 601 277 601C254 601 231 601 207.8 601C184.7 601 161.3 601 138.2 601C115 601 92 601 69 601C46 601 23 601 11.5 601L0 601Z"
        fill="#d53867"></path>
    <path
        d="M0 524L11.5 524.5C23 525 46 526 69 531.3C92 536.7 115 546.3 138.2 555C161.3 563.7 184.7 571.3 207.8 574C231 576.7 254 574.3 277 569.2C300 564 323 556 346 548.7C369 541.3 392 534.7 415.2 532.7C438.3 530.7 461.7 533.3 484.8 535.8C508 538.3 531 540.7 554 538C577 535.3 600 527.7 623 530.8C646 534 669 548 692.2 557C715.3 566 738.7 570 761.8 571.2C785 572.3 808 570.7 831 570.7C854 570.7 877 572.3 888.5 573.2L900 574L900 601L888.5 601C877 601 854 601 831 601C808 601 785 601 761.8 601C738.7 601 715.3 601 692.2 601C669 601 646 601 623 601C600 601 577 601 554 601C531 601 508 601 484.8 601C461.7 601 438.3 601 415.2 601C392 601 369 601 346 601C323 601 300 601 277 601C254 601 231 601 207.8 601C184.7 601 161.3 601 138.2 601C115 601 92 601 69 601C46 601 23 601 11.5 601L0 601Z"
        fill="#c62368"></path>
</svg>