<svg id="visual" viewBox="0 0 900 600" width="900" height="600" xmlns="http://www.w3.org/2000/svg" xmlns:xlink="http://www.w3.org/1999/xlink" version="1.1"><path d="M206 0L207.2 14.3C208.3 28.7 210.7 57.3 204.3 85.8C198 114.3 183 142.7 174.8 171.2C166.7 199.7 165.3 228.3 159 257C152.7 285.7 141.3 314.3 138.7 343C136 371.7 142 400.3 143.3 428.8C144.7 457.3 141.3 485.7 145.8 514.2C150.3 542.7 162.7 571.3 168.8 585.7L175 600L0 600L0 585.7C0 571.3 0 542.7 0 514.2C0 485.7 0 457.3 0 428.8C0 400.3 0 371.7 0 343C0 314.3 0 285.7 0 257C0 228.3 0 199.7 0 171.2C0 142.7 0 114.3 0 85.8C0 57.3 0 28.7 0 14.3L0 0Z" fill="#009151"></path><path d="M104 0L105.5 14.3C107 28.7 110 57.3 115.3 85.8C120.7 114.3 128.3 142.7 126.2 171.2C124 199.7 112 228.3 116.7 257C121.3 285.7 142.7 314.3 150.2 343C157.7 371.7 151.3 400.3 142.3 428.8C133.3 457.3 121.7 485.7 120.2 514.2C118.7 542.7 127.3 571.3 131.7 585.7L136 600L0 600L0 585.7C0 571.3 0 542.7 0 514.2C0 485.7 0 457.3 0 428.8C0 400.3 0 371.7 0 343C0 314.3 0 285.7 0 257C0 228.3 0 199.7 0 171.2C0 142.7 0 114.3 0 85.8C0 57.3 0 28.7 0 14.3L0 0Z" fill="#209d4e"></path><path d="M127 0L120.5 14.3C114 28.7 101 57.3 93.2 85.8C85.3 114.3 82.7 142.7 87.3 171.2C92 199.7 104 228.3 110.7 257C117.3 285.7 118.7 314.3 109.8 343C101 371.7 82 400.3 77.2 428.8C72.3 457.3 81.7 485.7 85.2 514.2C88.7 542.7 86.3 571.3 85.2 585.7L84 600L0 600L0 585.7C0 571.3 0 542.7 0 514.2C0 485.7 0 457.3 0 428.8C0 400.3 0 371.7 0 343C0 314.3 0 285.7 0 257C0 228.3 0 199.7 0 171.2C0 142.7 0 114.3 0 85.8C0 57.3 0 28.7 0 14.3L0 0Z" fill="#36a949"></path><path d="M34 0L37 14.3C40 28.7 46 57.3 48.2 85.8C50.3 114.3 48.7 142.7 51.5 171.2C54.3 199.7 61.7 228.3 60.8 257C60 285.7 51 314.3 50 343C49 371.7 56 400.3 61 428.8C66 457.3 69 485.7 65.2 514.2C61.3 542.7 50.7 571.3 45.3 585.7L40 600L0 600L0 585.7C0 571.3 0 542.7 0 514.2C0 485.7 0 457.3 0 428.8C0 400.3 0 371.7 0 343C0 314.3 0 285.7 0 257C0 228.3 0 199.7 0 171.2C0 142.7 0 114.3 0 85.8C0 57.3 0 28.7 0 14.3L0 0Z" fill="#4bb543"></path></svg>